<?xml version="1.0" standalone="no"?>
<!DOCTYPE svg PUBLIC "-//W3C//DTD SVG 20010904//EN"
 "http://www.w3.org/TR/2001/REC-SVG-20010904/DTD/svg10.dtd">
<svg version="1.0" xmlns="http://www.w3.org/2000/svg"
 width="1000.000000pt" height="1000.000000pt" viewBox="0 0 1000.000000 1000.000000"
 preserveAspectRatio="xMidYMid meet">
<metadata>
Created by potrace 1.14, written by Peter Selinger 2001-2017
</metadata>
<g transform="translate(0.000000,1000.000000) scale(0.100000,-0.100000)"
fill="#000000" stroke="none">
<path d="M4897 9773 c-1 0 -69 -4 -152 -7 -82 -3 -161 -8 -175 -10 -14 -2 -56
-7 -94 -11 -38 -4 -79 -8 -90 -10 -12 -2 -43 -6 -69 -10 -27 -4 -58 -8 -70
-11 -12 -2 -37 -6 -57 -9 -38 -6 -70 -12 -110 -20 -14 -3 -36 -7 -50 -10 -14
-3 -36 -7 -50 -10 -14 -3 -34 -7 -45 -10 -35 -7 -248 -64 -315 -84 -329 -96
-745 -278 -1040 -454 -804 -479 -1448 -1170 -1854 -1991 -100 -204 -136 -282
-136 -299 0 -7 -4 -17 -9 -23 -9 -9 -80 -197 -111 -293 -22 -67 -80 -260 -85
-281 -2 -8 -10 -42 -19 -75 -22 -87 -53 -235 -71 -345 -23 -135 -23 -138 -30
-205 -4 -33 -8 -71 -10 -85 -4 -25 -15 -144 -21 -230 -5 -64 -5 -538 0 -580 2
-19 7 -71 10 -115 11 -133 20 -213 41 -350 7 -40 72 -367 79 -395 81 -304 143
-486 256 -750 271 -632 725 -1252 1242 -1697 57 -48 105 -90 108 -93 10 -11
185 -146 235 -181 398 -284 823 -503 1250 -647 269 -91 562 -163 790 -196 23
-4 50 -8 62 -10 12 -3 49 -7 82 -11 33 -3 68 -8 79 -10 18 -3 134 -13 257 -21
78 -5 528 -4 580 1 22 3 67 7 100 9 113 9 268 28 395 50 8 1 38 6 65 10 28 4
64 12 80 16 17 5 44 11 60 13 17 3 48 9 70 15 22 6 51 13 65 16 14 3 52 12 85
21 33 9 68 18 78 20 9 2 21 6 25 9 5 3 19 7 33 10 46 9 265 84 390 134 689
275 1272 677 1774 1223 198 215 450 551 559 745 9 16 26 45 38 64 111 185 237
445 322 663 98 253 203 603 233 777 2 14 10 61 18 105 8 44 17 96 20 115 3 19
7 46 10 60 2 14 7 50 10 80 3 30 8 71 10 90 7 52 16 156 21 230 5 85 5 535 0
580 -2 19 -7 80 -11 135 -4 55 -8 102 -10 105 -1 3 -6 37 -9 75 -4 39 -9 77
-11 85 -2 8 -7 33 -10 55 -3 23 -8 52 -10 65 -3 14 -9 50 -15 80 -5 30 -16 87
-25 125 -8 39 -17 79 -20 90 -44 210 -151 530 -264 794 -62 144 -197 412 -232
463 -11 14 -19 29 -19 33 0 11 -152 248 -233 362 -342 483 -803 928 -1279
1236 -32 20 -82 53 -112 72 -29 19 -57 35 -61 35 -5 0 -16 6 -24 14 -39 33
-357 196 -527 269 -170 74 -426 166 -559 202 -123 34 -286 75 -318 80 -17 3
-39 8 -47 10 -8 2 -26 6 -40 9 -14 2 -52 9 -85 15 -110 19 -120 21 -165 27
-25 3 -56 7 -70 10 -14 2 -54 6 -90 10 -36 3 -78 7 -95 9 -76 10 -521 25 -528
18z"/>
</g>
</svg>
